<?xml version="1.0" encoding="UTF-8"?>
<!DOCTYPE svg PUBLIC "-//W3C//DTD SVG 1.1//EN" "http://www.w3.org/Graphics/SVG/1.1/DTD/svg11.dtd">
<!-- Creator: CorelDRAW -->
<svg xmlns="http://www.w3.org/2000/svg" xml:space="preserve" width="24.3332mm" height="11.4126mm" version="1.1" style="shape-rendering:geometricPrecision; text-rendering:geometricPrecision; image-rendering:optimizeQuality; fill-rule:evenodd; clip-rule:evenodd"
viewBox="0 0 2597.16 1218.1"
 xmlns:xlink="http://www.w3.org/1999/xlink"
 xmlns:xodm="http://www.corel.com/coreldraw/odm/2003">
 <defs>
  <style type="text/css">
   <![CDATA[
    .str0 {stroke:#F58634;stroke-width:28.23;stroke-miterlimit:22.9256}
    .str2 {stroke:#727376;stroke-width:21.35;stroke-miterlimit:22.9256}
    .str1 {stroke:#00A859;stroke-width:21.35;stroke-miterlimit:22.9256}
    .str3 {stroke:#4B4B4D;stroke-width:8.13;stroke-miterlimit:22.9256}
    .fil0 {fill:none}
    .fil2 {fill:none;fill-rule:nonzero}
    .fil1 {fill:#F58634;fill-rule:nonzero}
   ]]>
  </style>
 </defs>
 <g id="Camada_x0020_1">
  <metadata id="CorelCorpID_0Corel-Layer"/>
  <polygon class="fil0 str0" points="1269.75,18.29 1710.07,381.04 2150.37,743.79 1269.75,743.79 389.14,743.79 829.44,381.04 1208.87,68.46 "/>
  <polygon class="fil0 str1" points="1269.75,39.11 1684.8,381.04 2099.83,722.98 1269.75,722.98 439.67,722.98 854.71,381.04 "/>
  <polygon class="fil0 str2" points="1269.75,66.42 1651.65,384.42 2033.54,702.42 1269.75,702.42 505.96,702.42 887.86,384.42 "/>
  <path class="fil1" d="M134.01 757.6l114.68 148.05c10.69,13.79 18.48,20.75 23.19,20.75 8.02,0 12.03,-12.64 12.03,-37.79 0,-28.52 -1.18,-48 -3.46,-58.32 -2.28,-10.43 -7.16,-18.32 -14.55,-23.53 -5.98,-4.29 -10.23,-8.81 -12.65,-13.67 -2.44,-4.88 -3.7,-11.13 -3.7,-18.9 0,-19.01 8.88,-31.19 26.5,-36.63 7.23,-2.33 19.8,-3.48 37.8,-3.48 23.19,0 39.22,2.08 48.1,6.14 14.15,6.38 21.15,18.33 21.15,36.07 0,14.72 -5.74,25.73 -17.22,33.27 -4.64,2.9 -7.78,5.56 -9.44,7.77 -1.73,2.32 -3.15,5.68 -4.41,10.2 -4.16,14.95 -6.29,43.24 -6.44,84.98l0 110.71c0,16.93 0.06,40.11 0.22,69.56 0.16,39.89 -1.48,68.64 -4.87,86.26 -4.09,22.03 -11.63,32.93 -22.56,33.03 -4.72,-0.11 -8.88,-1.5 -12.34,-4.51 -3.38,-2.9 -9.13,-9.74 -17.14,-20.29l-136.54 -180.4c-9.51,-12.64 -17.45,-19.01 -23.74,-19.01 -9.36,0 -14.08,19.13 -14.08,57.39 0,31.41 1.26,52.98 3.62,64.57 2.36,11.47 7.24,20.06 14.62,25.39 10.3,7.54 15.41,17.27 15.41,29.21 0,31.54 -22.96,47.3 -68.87,47.3 -20.66,0 -36.78,-4.06 -48.26,-12.06 -11.39,-8.11 -17.13,-19.48 -17.13,-34.2 0,-7.65 1.1,-13.45 3.22,-17.28 2.12,-3.82 6.99,-9.04 14.54,-15.65 7.24,-6.37 11.56,-17.5 13.13,-33.62 2.59,-29.21 3.94,-71.18 3.94,-126.02 0,-58.44 -2.36,-100.98 -6.93,-127.76 -1.73,-9.74 -3.84,-16.93 -6.44,-21.69 -2.68,-4.75 -6.92,-9.28 -12.89,-13.56 -6.93,-4.98 -11.71,-9.86 -14.47,-14.61 -2.67,-4.75 -4,-10.55 -4,-17.39 0,-21.69 12.65,-35.36 38.05,-41.05 8.57,-1.85 23.58,-2.78 45.12,-2.78 12.26,0 21.22,1.5 26.81,4.29 5.58,2.78 12.26,9.28 19.97,19.24z"/>
  <path id="_1" class="fil1" d="M533.04 866.23c28.06,0 52.75,10.78 73.89,32.22 15.25,15.42 27.44,35.48 36.64,60.18 9.51,25.85 14.3,52.75 14.3,80.81 0,49.15 -15.33,90.89 -45.83,125.33 -29.16,32.81 -62.57,49.27 -100.22,49.27 -36.64,0 -66.36,-15.42 -89.07,-46.14 -22.17,-29.91 -33.17,-68.86 -33.17,-116.86 0,-53.45 13.52,-97.16 40.48,-131.12 28.31,-35.83 62.58,-53.68 102.98,-53.68zm-18.48 78.48c-6.76,0 -12.1,3.71 -16.19,11.01 -4.09,7.42 -6.13,17.16 -6.13,29.33 0,13.68 1.73,32.12 5.19,55.53 3.46,23.53 7.55,44.29 12.34,62.37 4.72,18.55 12.51,27.83 23.27,27.83 13.68,0 20.52,-12.75 20.52,-38.37 0,-19.02 -1.73,-40.58 -5.19,-64.81 -3.47,-24.23 -7.72,-43.94 -12.58,-59.13 -5.03,-15.42 -12.1,-23.3 -21.23,-23.77z"/>
  <path id="_2" class="fil1" d="M766.5 866.58c7.72,0 20.22,2.43 37.58,7.42 3.53,0.93 6.45,1.4 8.73,1.4 2.58,0 7.7,-1.97 15.17,-6.15 3.53,-1.97 6.52,-3.01 9.04,-3.01 7.08,0 14.15,6.72 21.38,20.06 5.82,10.66 10.61,22.25 14.31,35.01 3.69,12.64 5.5,23.65 5.5,32.93 0,9.04 -2.11,16.58 -6.44,22.61 -4.33,5.91 -9.67,8.93 -16.12,8.93 -5.35,0 -10.14,-1.86 -14.39,-5.69 -4.25,-3.94 -11.01,-12.4 -20.36,-25.5 -9.82,-14.04 -18.01,-21.1 -24.44,-21.1 -4.33,0 -8.02,2.32 -11.16,6.95 -3.15,4.64 -4.72,10.2 -4.72,16.47 0,11.13 7.24,21.56 21.62,31.3 25.94,17.15 45.82,35.94 59.65,56.34 11.72,17.27 17.54,38.25 17.54,63.19 0,31.53 -9.35,57.73 -28.15,78.83 -16.12,18.32 -35.85,27.47 -59.19,27.47 -5.97,0 -16.82,-1.5 -32.69,-4.41 -14.87,-2.43 -23.2,-3.7 -25.08,-3.7 -1.96,0 -4.32,0.34 -6.92,1.05 -4.4,0.81 -7.63,1.27 -9.67,1.27 -7.24,0 -12.89,-2.67 -17.06,-8.11 -6.29,-8.35 -12.11,-21.57 -17.46,-39.53 -5.42,-18.09 -8.09,-33.51 -8.09,-46.38 0,-20.87 5.51,-31.3 16.59,-31.3 4.32,0 8.25,2.09 11.87,6.27 3.62,4.28 11.16,15.41 22.72,33.5 6.29,9.97 11.47,16.81 15.64,20.51 4.17,3.71 8.57,5.69 13.36,5.69 5.04,0 9.13,-1.97 12.19,-6.03 3.06,-3.95 4.63,-9.16 4.63,-15.78 0,-10.19 -5.97,-19.47 -17.76,-27.81 -24.76,-17.86 -42.61,-36.41 -53.54,-55.43 -11,-19.01 -16.51,-40.92 -16.51,-65.84 0,-26.9 5.67,-50.21 16.83,-69.68 15.96,-27.83 37.82,-41.74 65.4,-41.74z"/>
  <path id="_3" class="fil1" d="M991.25 866.58c7.71,0 20.2,2.43 37.58,7.42 3.53,0.93 6.45,1.4 8.73,1.4 2.58,0 7.7,-1.97 15.17,-6.15 3.53,-1.97 6.52,-3.01 9.04,-3.01 7.08,0 14.15,6.72 21.38,20.06 5.82,10.66 10.61,22.25 14.31,35.01 3.69,12.64 5.5,23.65 5.5,32.93 0,9.04 -2.12,16.58 -6.44,22.61 -4.33,5.91 -9.67,8.93 -16.12,8.93 -5.35,0 -10.14,-1.86 -14.39,-5.69 -4.25,-3.94 -11.01,-12.4 -20.36,-25.5 -9.83,-14.04 -18.01,-21.1 -24.44,-21.1 -4.33,0 -8.02,2.32 -11.16,6.95 -3.15,4.64 -4.73,10.2 -4.73,16.47 0,11.13 7.25,21.56 21.63,31.3 25.94,17.15 45.82,35.94 59.65,56.34 11.71,17.27 17.54,38.25 17.54,63.19 0,31.53 -9.35,57.73 -28.15,78.83 -16.12,18.32 -35.85,27.47 -59.19,27.47 -5.98,0 -16.82,-1.5 -32.7,-4.41 -14.86,-2.43 -23.19,-3.7 -25.07,-3.7 -1.96,0 -4.32,0.34 -6.92,1.05 -4.4,0.81 -7.63,1.27 -9.67,1.27 -7.24,0 -12.89,-2.67 -17.06,-8.11 -6.3,-8.35 -12.11,-21.57 -17.46,-39.53 -5.42,-18.09 -8.09,-33.51 -8.09,-46.38 0,-20.87 5.51,-31.3 16.59,-31.3 4.32,0 8.25,2.09 11.87,6.27 3.62,4.28 11.16,15.41 22.72,33.5 6.29,9.97 11.47,16.81 15.64,20.51 4.17,3.71 8.57,5.69 13.36,5.69 5.04,0 9.13,-1.97 12.19,-6.03 3.06,-3.95 4.63,-9.16 4.63,-15.78 0,-10.19 -5.97,-19.47 -17.76,-27.81 -24.76,-17.86 -42.61,-36.41 -53.54,-55.43 -11,-19.01 -16.51,-40.92 -16.51,-65.84 0,-26.9 5.67,-50.21 16.83,-69.68 15.96,-27.83 37.82,-41.74 65.4,-41.74z"/>
  <path id="_4" class="fil1" d="M1255.38 866.23c26.73,0 49.37,9.97 67.92,29.91 9.83,10.66 16.75,22.84 20.67,36.52 3.85,13.67 5.82,32.57 5.82,56.57l-0.48 50.55c0,35.14 1.73,57.85 5.11,68.29 1.65,4.98 3.31,8.11 4.88,9.51 1.49,1.39 4.72,2.55 9.67,3.7 4.87,1.16 7.31,5.91 7.31,14.26 0,10.9 -2.91,22.26 -8.88,33.97 -5.9,11.83 -13.52,21.68 -22.88,29.57 -11.55,9.97 -23.58,14.95 -36.16,14.95 -16.12,0 -28.84,-8.11 -38.2,-24.46 -3.22,-5.91 -6.21,-8.81 -9.04,-8.81 -3.07,0 -7.08,2.78 -12.19,8.46 -15.33,16.58 -32.78,24.8 -52.27,24.8 -20.13,0 -36.4,-6.37 -48.82,-19.01 -8.1,-8.35 -14.62,-19.36 -19.34,-32.81 -4.79,-13.45 -7.15,-27.48 -7.15,-42.2 0,-23.65 6.45,-44.4 19.33,-62.61 20.13,-28.52 50.24,-42.9 90.33,-43.12 8.88,0 14.46,-1.28 16.82,-3.83 2.28,-2.67 3.38,-8.7 3.38,-18.2 0,-24 -1.65,-41.39 -5.04,-52.17 -3.37,-10.67 -8.88,-16.12 -16.59,-16.12 -4.63,0 -8.72,2.08 -12.34,6.15 -3.62,4.06 -8.09,11.47 -13.44,22.37 -13.67,28.75 -27.99,43.13 -42.84,43.13 -7.55,0 -13.67,-3.24 -18.4,-9.85 -4.79,-6.5 -7.15,-15.19 -7.15,-25.74 0,-10.9 2.9,-21.79 8.88,-32.69 5.9,-10.78 13.92,-20.29 24.06,-28.52 27.75,-21.68 56.76,-32.57 87.02,-32.57zm-15.4 196.62c-6.77,0 -12.66,4.06 -17.61,12.28 -5.03,8.12 -7.47,17.86 -7.47,29.22 0,10.9 1.73,19.59 5.27,26.31 3.53,6.61 8.18,9.97 14.07,9.97 12.26,0 18.4,-15.29 18.4,-45.79 0,-12.52 -0.88,-20.87 -2.68,-25.16 -1.73,-4.29 -5.1,-6.61 -9.98,-6.84z"/>
  <path id="_5" class="fil1" d="M1685.14 731.74c22.4,0 44.03,7.19 64.93,21.69 9.83,6.84 16.67,10.2 20.52,10.2 2.74,0 7.15,-0.93 13.29,-3.02 2.04,-0.69 4.25,-1.05 6.68,-1.05 8.02,0 15.01,5.45 20.98,16.35 14.78,26.2 22.09,58.9 22.09,97.85 0,27.36 -6.37,47.41 -19.11,60.05 -6.92,6.84 -14.62,10.2 -23.27,10.2 -7.78,0 -14.15,-2.43 -19.09,-7.42 -4.88,-4.98 -9.68,-13.92 -14.31,-26.54 -6.61,-17.86 -11.94,-30.73 -16.12,-38.62 -4.09,-7.76 -9.2,-14.84 -15.18,-21.21 -14.85,-15.31 -30.49,-23.08 -46.77,-23.08 -15.8,0 -28.38,8.46 -37.66,25.27 -9.28,16.93 -13.91,39.53 -13.91,67.82 0,38.96 6.68,74.55 20.04,107.01 18.08,43.25 44.03,64.81 77.82,64.81 12.42,0 24.76,-3.01 36.95,-9.16 12.26,-6.15 21.69,-14.02 28.46,-23.77 5.82,-8.11 10.61,-12.17 14.31,-12.17 5.34,0 9.98,3.59 13.83,11.01 3.78,7.3 5.73,16.22 5.73,26.66 0,13.1 -2.67,27.83 -8.09,44.17 -5.35,16.23 -11.79,29.11 -19.34,38.38 -3.22,3.82 -9.9,7.18 -20.04,10.2 -5.82,1.5 -13.6,5.68 -23.27,12.52 -22.72,16.12 -46.31,24.11 -70.9,24.11 -25.63,0 -51.18,-8.46 -76.73,-25.51 -29.55,-19.7 -52.98,-49.84 -70.2,-90.66 -16.9,-39.65 -25.31,-81.03 -25.31,-124.28 0,-50.31 10.52,-96.11 31.75,-137.61 18.4,-35.95 42.45,-63.42 72.09,-82.55 22.56,-14.49 45.83,-21.69 69.8,-21.69z"/>
  <path id="_6" class="fil1" d="M1980.09 866.23c26.73,0 49.37,9.97 67.92,29.91 9.82,10.66 16.75,22.84 20.67,36.52 3.84,13.67 5.82,32.57 5.82,56.57l-0.48 50.55c0,35.14 1.73,57.85 5.11,68.29 1.65,4.98 3.31,8.11 4.88,9.51 1.49,1.39 4.72,2.55 9.67,3.7 4.87,1.16 7.31,5.91 7.31,14.26 0,10.9 -2.91,22.26 -8.88,33.97 -5.9,11.83 -13.53,21.68 -22.88,29.57 -11.56,9.97 -23.58,14.95 -36.16,14.95 -16.12,0 -28.85,-8.11 -38.2,-24.46 -3.22,-5.91 -6.21,-8.81 -9.04,-8.81 -3.07,0 -7.08,2.78 -12.19,8.46 -15.33,16.58 -32.78,24.8 -52.28,24.8 -20.12,0 -36.4,-6.37 -48.81,-19.01 -8.1,-8.35 -14.62,-19.36 -19.34,-32.81 -4.79,-13.45 -7.15,-27.48 -7.15,-42.2 0,-23.65 6.45,-44.4 19.33,-62.61 20.13,-28.52 50.24,-42.9 90.33,-43.12 8.88,0 14.46,-1.28 16.82,-3.83 2.27,-2.67 3.37,-8.7 3.37,-18.2 0,-24 -1.64,-41.39 -5.03,-52.17 -3.37,-10.67 -8.88,-16.12 -16.59,-16.12 -4.63,0 -8.72,2.08 -12.34,6.15 -3.62,4.06 -8.1,11.47 -13.44,22.37 -13.68,28.75 -27.99,43.13 -42.84,43.13 -7.55,0 -13.68,-3.24 -18.4,-9.85 -4.79,-6.5 -7.15,-15.19 -7.15,-25.74 0,-10.9 2.9,-21.79 8.88,-32.69 5.9,-10.78 13.92,-20.29 24.06,-28.52 27.75,-21.68 56.75,-32.57 87.02,-32.57zm-15.41 196.62c-6.76,0 -12.65,4.06 -17.6,12.28 -5.03,8.12 -7.47,17.86 -7.47,29.22 0,10.9 1.73,19.59 5.27,26.31 3.53,6.61 8.18,9.97 14.07,9.97 12.26,0 18.39,-15.29 18.39,-45.79 0,-12.52 -0.86,-20.87 -2.67,-25.16 -1.73,-4.29 -5.11,-6.61 -9.99,-6.84z"/>
  <path id="_7" class="fil1" d="M2208.06 866.58c7.71,0 20.2,2.43 37.57,7.42 3.54,0.93 6.45,1.4 8.73,1.4 2.59,0 7.7,-1.97 15.17,-6.15 3.54,-1.97 6.53,-3.01 9.05,-3.01 7.07,0 14.14,6.72 21.38,20.06 5.82,10.66 10.61,22.25 14.3,35.01 3.69,12.64 5.5,23.65 5.5,32.93 0,9.04 -2.11,16.58 -6.44,22.61 -4.33,5.91 -9.67,8.93 -16.12,8.93 -5.35,0 -10.14,-1.86 -14.39,-5.69 -4.24,-3.94 -11,-12.4 -20.35,-25.5 -9.83,-14.04 -18.01,-21.1 -24.45,-21.1 -4.32,0 -8.02,2.32 -11.16,6.95 -3.14,4.64 -4.72,10.2 -4.72,16.47 0,11.13 7.24,21.56 21.62,31.3 25.94,17.15 45.82,35.94 59.66,56.34 11.71,17.27 17.53,38.25 17.53,63.19 0,31.53 -9.35,57.73 -28.13,78.83 -16.12,18.32 -35.85,27.47 -59.2,27.47 -5.97,0 -16.82,-1.5 -32.69,-4.41 -14.86,-2.43 -23.19,-3.7 -25.08,-3.7 -1.96,0 -4.32,0.34 -6.92,1.05 -4.4,0.81 -7.63,1.27 -9.67,1.27 -7.24,0 -12.89,-2.67 -17.06,-8.11 -6.29,-8.35 -12.1,-21.57 -17.45,-39.53 -5.42,-18.09 -8.1,-33.51 -8.1,-46.38 0,-20.87 5.51,-31.3 16.59,-31.3 4.32,0 8.26,2.09 11.88,6.27 3.61,4.28 11.15,15.41 22.71,33.5 6.29,9.97 11.47,16.81 15.64,20.51 4.17,3.71 8.57,5.69 13.37,5.69 5.03,0 9.11,-1.97 12.19,-6.03 3.05,-3.95 4.62,-9.16 4.62,-15.78 0,-10.19 -5.97,-19.47 -17.75,-27.81 -24.77,-17.86 -42.62,-36.41 -53.55,-55.43 -10.99,-19.01 -16.5,-40.92 -16.5,-65.84 0,-26.9 5.66,-50.21 16.82,-69.68 15.96,-27.83 37.82,-41.74 65.41,-41.74z"/>
  <path id="_8" class="fil1" d="M2472.19 866.23c26.73,0 49.36,9.97 67.91,29.91 9.83,10.66 16.75,22.84 20.67,36.52 3.85,13.67 5.82,32.57 5.82,56.57l-0.47 50.55c0,35.14 1.73,57.85 5.1,68.29 1.67,4.98 3.31,8.11 4.88,9.51 1.49,1.39 4.72,2.55 9.67,3.7 4.88,1.16 7.31,5.91 7.31,14.26 0,10.9 -2.9,22.26 -8.88,33.97 -5.89,11.83 -13.52,21.68 -22.87,29.57 -11.56,9.97 -23.59,14.95 -36.16,14.95 -16.12,0 -28.85,-8.11 -38.21,-24.46 -3.22,-5.91 -6.21,-8.81 -9.04,-8.81 -3.06,0 -7.08,2.78 -12.19,8.46 -15.33,16.58 -32.77,24.8 -52.27,24.8 -20.13,0 -36.4,-6.37 -48.82,-19.01 -8.09,-8.35 -14.62,-19.36 -19.33,-32.81 -4.8,-13.45 -7.16,-27.48 -7.16,-42.2 0,-23.65 6.45,-44.4 19.34,-62.61 20.12,-28.52 50.23,-42.9 90.33,-43.12 8.88,0 14.45,-1.28 16.81,-3.83 2.28,-2.67 3.38,-8.7 3.38,-18.2 0,-24 -1.65,-41.39 -5.03,-52.17 -3.38,-10.67 -8.88,-16.12 -16.59,-16.12 -4.64,0 -8.72,2.08 -12.34,6.15 -3.62,4.06 -8.1,11.47 -13.45,22.37 -13.67,28.75 -27.99,43.13 -42.84,43.13 -7.55,0 -13.67,-3.24 -18.39,-9.85 -4.8,-6.5 -7.16,-15.19 -7.16,-25.74 0,-10.9 2.91,-21.79 8.89,-32.69 5.89,-10.78 13.91,-20.29 24.06,-28.52 27.74,-21.68 56.75,-32.57 87.02,-32.57zm-15.41 196.62c-6.76,0 -12.66,4.06 -17.61,12.28 -5.03,8.12 -7.46,17.86 -7.46,29.22 0,10.9 1.73,19.59 5.26,26.31 3.54,6.61 8.18,9.97 14.07,9.97 12.27,0 18.4,-15.29 18.4,-45.79 0,-12.52 -0.86,-20.87 -2.67,-25.16 -1.73,-4.29 -5.11,-6.61 -9.99,-6.84z"/>
  <path id="_9" class="fil2 str3" d="M134.01 757.6l114.68 148.05c10.69,13.79 18.48,20.75 23.19,20.75 8.02,0 12.03,-12.64 12.03,-37.79 0,-28.52 -1.18,-48 -3.46,-58.32 -2.28,-10.43 -7.16,-18.32 -14.55,-23.53 -5.98,-4.29 -10.23,-8.81 -12.65,-13.67 -2.44,-4.88 -3.7,-11.13 -3.7,-18.9 0,-19.01 8.88,-31.19 26.5,-36.63 7.23,-2.33 19.8,-3.48 37.8,-3.48 23.19,0 39.22,2.08 48.1,6.14 14.15,6.38 21.15,18.33 21.15,36.07 0,14.72 -5.74,25.73 -17.22,33.27 -4.64,2.9 -7.78,5.56 -9.44,7.77 -1.73,2.32 -3.15,5.68 -4.41,10.2 -4.16,14.95 -6.29,43.24 -6.44,84.98l0 110.71c0,16.93 0.06,40.11 0.22,69.56 0.16,39.89 -1.48,68.64 -4.87,86.26 -4.09,22.03 -11.63,32.93 -22.56,33.03 -4.72,-0.11 -8.88,-1.5 -12.34,-4.51 -3.38,-2.9 -9.13,-9.74 -17.14,-20.29l-136.54 -180.4c-9.51,-12.64 -17.45,-19.01 -23.74,-19.01 -9.36,0 -14.08,19.13 -14.08,57.39 0,31.41 1.26,52.98 3.62,64.57 2.36,11.47 7.24,20.06 14.62,25.39 10.3,7.54 15.41,17.27 15.41,29.21 0,31.54 -22.96,47.3 -68.87,47.3 -20.66,0 -36.78,-4.06 -48.26,-12.06 -11.39,-8.11 -17.13,-19.48 -17.13,-34.2 0,-7.65 1.1,-13.45 3.22,-17.28 2.12,-3.82 6.99,-9.04 14.54,-15.65 7.24,-6.37 11.56,-17.5 13.13,-33.62 2.59,-29.21 3.94,-71.18 3.94,-126.02 0,-58.44 -2.36,-100.98 -6.93,-127.76 -1.73,-9.74 -3.84,-16.93 -6.44,-21.69 -2.68,-4.75 -6.92,-9.28 -12.89,-13.56 -6.93,-4.98 -11.71,-9.86 -14.47,-14.61 -2.67,-4.75 -4,-10.55 -4,-17.39 0,-21.69 12.65,-35.36 38.05,-41.05 8.57,-1.85 23.58,-2.78 45.12,-2.78 12.26,0 21.22,1.5 26.81,4.29 5.58,2.78 12.26,9.28 19.97,19.24z"/>
  <path id="_10" class="fil2 str3" d="M533.04 866.23c28.06,0 52.75,10.78 73.89,32.22 15.25,15.42 27.44,35.48 36.64,60.18 9.51,25.85 14.3,52.75 14.3,80.81 0,49.15 -15.33,90.89 -45.83,125.33 -29.16,32.81 -62.57,49.27 -100.22,49.27 -36.64,0 -66.36,-15.42 -89.07,-46.14 -22.17,-29.91 -33.17,-68.86 -33.17,-116.86 0,-53.45 13.52,-97.16 40.48,-131.12 28.31,-35.83 62.58,-53.68 102.98,-53.68zm-18.48 78.48c-6.76,0 -12.1,3.71 -16.19,11.01 -4.09,7.42 -6.13,17.16 -6.13,29.33 0,13.68 1.73,32.12 5.19,55.53 3.46,23.53 7.55,44.29 12.34,62.37 4.72,18.55 12.51,27.83 23.27,27.83 13.68,0 20.52,-12.75 20.52,-38.37 0,-19.02 -1.73,-40.58 -5.19,-64.81 -3.47,-24.23 -7.72,-43.94 -12.58,-59.13 -5.03,-15.42 -12.1,-23.3 -21.23,-23.77z"/>
  <path id="_11" class="fil2 str3" d="M766.5 866.58c7.72,0 20.22,2.43 37.58,7.42 3.53,0.93 6.45,1.4 8.73,1.4 2.58,0 7.7,-1.97 15.17,-6.15 3.53,-1.97 6.52,-3.01 9.04,-3.01 7.08,0 14.15,6.72 21.38,20.06 5.82,10.66 10.61,22.25 14.31,35.01 3.69,12.64 5.5,23.65 5.5,32.93 0,9.04 -2.11,16.58 -6.44,22.61 -4.33,5.91 -9.67,8.93 -16.12,8.93 -5.35,0 -10.14,-1.86 -14.39,-5.69 -4.25,-3.94 -11.01,-12.4 -20.36,-25.5 -9.82,-14.04 -18.01,-21.1 -24.44,-21.1 -4.33,0 -8.02,2.32 -11.16,6.95 -3.15,4.64 -4.72,10.2 -4.72,16.47 0,11.13 7.24,21.56 21.62,31.3 25.94,17.15 45.82,35.94 59.65,56.34 11.72,17.27 17.54,38.25 17.54,63.19 0,31.53 -9.35,57.73 -28.15,78.83 -16.12,18.32 -35.85,27.47 -59.19,27.47 -5.97,0 -16.82,-1.5 -32.69,-4.41 -14.87,-2.43 -23.2,-3.7 -25.08,-3.7 -1.96,0 -4.32,0.34 -6.92,1.05 -4.4,0.81 -7.63,1.27 -9.67,1.27 -7.24,0 -12.89,-2.67 -17.06,-8.11 -6.29,-8.35 -12.11,-21.57 -17.46,-39.53 -5.42,-18.09 -8.09,-33.51 -8.09,-46.38 0,-20.87 5.51,-31.3 16.59,-31.3 4.32,0 8.25,2.09 11.87,6.27 3.62,4.28 11.16,15.41 22.72,33.5 6.29,9.97 11.47,16.81 15.64,20.51 4.17,3.71 8.57,5.69 13.36,5.69 5.04,0 9.13,-1.97 12.19,-6.03 3.06,-3.95 4.63,-9.16 4.63,-15.78 0,-10.19 -5.97,-19.47 -17.76,-27.81 -24.76,-17.86 -42.61,-36.41 -53.54,-55.43 -11,-19.01 -16.51,-40.92 -16.51,-65.84 0,-26.9 5.67,-50.21 16.83,-69.68 15.96,-27.83 37.82,-41.74 65.4,-41.74z"/>
  <path id="_12" class="fil2 str3" d="M991.25 866.58c7.71,0 20.2,2.43 37.58,7.42 3.53,0.93 6.45,1.4 8.73,1.4 2.58,0 7.7,-1.97 15.17,-6.15 3.53,-1.97 6.52,-3.01 9.04,-3.01 7.08,0 14.15,6.72 21.38,20.06 5.82,10.66 10.61,22.25 14.31,35.01 3.69,12.64 5.5,23.65 5.5,32.93 0,9.04 -2.12,16.58 -6.44,22.61 -4.33,5.91 -9.67,8.93 -16.12,8.93 -5.35,0 -10.14,-1.86 -14.39,-5.69 -4.25,-3.94 -11.01,-12.4 -20.36,-25.5 -9.83,-14.04 -18.01,-21.1 -24.44,-21.1 -4.33,0 -8.02,2.32 -11.16,6.95 -3.15,4.64 -4.73,10.2 -4.73,16.47 0,11.13 7.25,21.56 21.63,31.3 25.94,17.15 45.82,35.94 59.65,56.34 11.71,17.27 17.54,38.25 17.54,63.19 0,31.53 -9.35,57.73 -28.15,78.83 -16.12,18.32 -35.85,27.47 -59.19,27.47 -5.98,0 -16.82,-1.5 -32.7,-4.41 -14.86,-2.43 -23.19,-3.7 -25.07,-3.7 -1.96,0 -4.32,0.34 -6.92,1.05 -4.4,0.81 -7.63,1.27 -9.67,1.27 -7.24,0 -12.89,-2.67 -17.06,-8.11 -6.3,-8.35 -12.11,-21.57 -17.46,-39.53 -5.42,-18.09 -8.09,-33.51 -8.09,-46.38 0,-20.87 5.51,-31.3 16.59,-31.3 4.32,0 8.25,2.09 11.87,6.27 3.62,4.28 11.16,15.41 22.72,33.5 6.29,9.97 11.47,16.81 15.64,20.51 4.17,3.71 8.57,5.69 13.36,5.69 5.04,0 9.13,-1.97 12.19,-6.03 3.06,-3.95 4.63,-9.16 4.63,-15.78 0,-10.19 -5.97,-19.47 -17.76,-27.81 -24.76,-17.86 -42.61,-36.41 -53.54,-55.43 -11,-19.01 -16.51,-40.92 -16.51,-65.84 0,-26.9 5.67,-50.21 16.83,-69.68 15.96,-27.83 37.82,-41.74 65.4,-41.74z"/>
  <path id="_13" class="fil2 str3" d="M1255.38 866.23c26.73,0 49.37,9.97 67.92,29.91 9.83,10.66 16.75,22.84 20.67,36.52 3.85,13.67 5.82,32.57 5.82,56.57l-0.48 50.55c0,35.14 1.73,57.85 5.11,68.29 1.65,4.98 3.31,8.11 4.88,9.51 1.49,1.39 4.72,2.55 9.67,3.7 4.87,1.16 7.31,5.91 7.31,14.26 0,10.9 -2.91,22.26 -8.88,33.97 -5.9,11.83 -13.52,21.68 -22.88,29.57 -11.55,9.97 -23.58,14.95 -36.16,14.95 -16.12,0 -28.84,-8.11 -38.2,-24.46 -3.22,-5.91 -6.21,-8.81 -9.04,-8.81 -3.07,0 -7.08,2.78 -12.19,8.46 -15.33,16.58 -32.78,24.8 -52.27,24.8 -20.13,0 -36.4,-6.37 -48.82,-19.01 -8.1,-8.35 -14.62,-19.36 -19.34,-32.81 -4.79,-13.45 -7.15,-27.48 -7.15,-42.2 0,-23.65 6.45,-44.4 19.33,-62.61 20.13,-28.52 50.24,-42.9 90.33,-43.12 8.88,0 14.46,-1.28 16.82,-3.83 2.28,-2.67 3.38,-8.7 3.38,-18.2 0,-24 -1.65,-41.39 -5.04,-52.17 -3.37,-10.67 -8.88,-16.12 -16.59,-16.12 -4.63,0 -8.72,2.08 -12.34,6.15 -3.62,4.06 -8.09,11.47 -13.44,22.37 -13.67,28.75 -27.99,43.13 -42.84,43.13 -7.55,0 -13.67,-3.24 -18.4,-9.85 -4.79,-6.5 -7.15,-15.19 -7.15,-25.74 0,-10.9 2.9,-21.79 8.88,-32.69 5.9,-10.78 13.92,-20.29 24.06,-28.52 27.75,-21.68 56.76,-32.57 87.02,-32.57zm-15.4 196.62c-6.77,0 -12.66,4.06 -17.61,12.28 -5.03,8.12 -7.47,17.86 -7.47,29.22 0,10.9 1.73,19.59 5.27,26.31 3.53,6.61 8.18,9.97 14.07,9.97 12.26,0 18.4,-15.29 18.4,-45.79 0,-12.52 -0.88,-20.87 -2.68,-25.16 -1.73,-4.29 -5.1,-6.61 -9.98,-6.84z"/>
  <path id="_14" class="fil2 str3" d="M1685.14 731.74c22.4,0 44.03,7.19 64.93,21.69 9.83,6.84 16.67,10.2 20.52,10.2 2.74,0 7.15,-0.93 13.29,-3.02 2.04,-0.69 4.25,-1.05 6.68,-1.05 8.02,0 15.01,5.45 20.98,16.35 14.78,26.2 22.09,58.9 22.09,97.85 0,27.36 -6.37,47.41 -19.11,60.05 -6.92,6.84 -14.62,10.2 -23.27,10.2 -7.78,0 -14.15,-2.43 -19.09,-7.42 -4.88,-4.98 -9.68,-13.92 -14.31,-26.54 -6.61,-17.86 -11.94,-30.73 -16.12,-38.62 -4.09,-7.76 -9.2,-14.84 -15.18,-21.21 -14.85,-15.31 -30.49,-23.08 -46.77,-23.08 -15.8,0 -28.38,8.46 -37.66,25.27 -9.28,16.93 -13.91,39.53 -13.91,67.82 0,38.96 6.68,74.55 20.04,107.01 18.08,43.25 44.03,64.81 77.82,64.81 12.42,0 24.76,-3.01 36.95,-9.16 12.26,-6.15 21.69,-14.02 28.46,-23.77 5.82,-8.11 10.61,-12.17 14.31,-12.17 5.34,0 9.98,3.59 13.83,11.01 3.78,7.3 5.73,16.22 5.73,26.66 0,13.1 -2.67,27.83 -8.09,44.17 -5.35,16.23 -11.79,29.11 -19.34,38.38 -3.22,3.82 -9.9,7.18 -20.04,10.2 -5.82,1.5 -13.6,5.68 -23.27,12.52 -22.72,16.12 -46.31,24.11 -70.9,24.11 -25.63,0 -51.18,-8.46 -76.73,-25.51 -29.55,-19.7 -52.98,-49.84 -70.2,-90.66 -16.9,-39.65 -25.31,-81.03 -25.31,-124.28 0,-50.31 10.52,-96.11 31.75,-137.61 18.4,-35.95 42.45,-63.42 72.09,-82.55 22.56,-14.49 45.83,-21.69 69.8,-21.69z"/>
  <path id="_15" class="fil2 str3" d="M1980.09 866.23c26.73,0 49.37,9.97 67.92,29.91 9.82,10.66 16.75,22.84 20.67,36.52 3.84,13.67 5.82,32.57 5.82,56.57l-0.48 50.55c0,35.14 1.73,57.85 5.11,68.29 1.65,4.98 3.31,8.11 4.88,9.51 1.49,1.39 4.72,2.55 9.67,3.7 4.87,1.16 7.31,5.91 7.31,14.26 0,10.9 -2.91,22.26 -8.88,33.97 -5.9,11.83 -13.53,21.68 -22.88,29.57 -11.56,9.97 -23.58,14.95 -36.16,14.95 -16.12,0 -28.85,-8.11 -38.2,-24.46 -3.22,-5.91 -6.21,-8.81 -9.04,-8.81 -3.07,0 -7.08,2.78 -12.19,8.46 -15.33,16.58 -32.78,24.8 -52.28,24.8 -20.12,0 -36.4,-6.37 -48.81,-19.01 -8.1,-8.35 -14.62,-19.36 -19.34,-32.81 -4.79,-13.45 -7.15,-27.48 -7.15,-42.2 0,-23.65 6.45,-44.4 19.33,-62.61 20.13,-28.52 50.24,-42.9 90.33,-43.12 8.88,0 14.46,-1.28 16.82,-3.83 2.27,-2.67 3.37,-8.7 3.37,-18.2 0,-24 -1.64,-41.39 -5.03,-52.17 -3.37,-10.67 -8.88,-16.12 -16.59,-16.12 -4.63,0 -8.72,2.08 -12.34,6.15 -3.62,4.06 -8.1,11.47 -13.44,22.37 -13.68,28.75 -27.99,43.13 -42.84,43.13 -7.55,0 -13.68,-3.24 -18.4,-9.85 -4.79,-6.5 -7.15,-15.19 -7.15,-25.74 0,-10.9 2.9,-21.79 8.88,-32.69 5.9,-10.78 13.92,-20.29 24.06,-28.52 27.75,-21.68 56.75,-32.57 87.02,-32.57zm-15.41 196.62c-6.76,0 -12.65,4.06 -17.6,12.28 -5.03,8.12 -7.47,17.86 -7.47,29.22 0,10.9 1.73,19.59 5.27,26.31 3.53,6.61 8.18,9.97 14.07,9.97 12.26,0 18.39,-15.29 18.39,-45.79 0,-12.52 -0.86,-20.87 -2.67,-25.16 -1.73,-4.29 -5.11,-6.61 -9.99,-6.84z"/>
  <path id="_16" class="fil2 str3" d="M2208.06 866.58c7.71,0 20.2,2.43 37.57,7.42 3.54,0.93 6.45,1.4 8.73,1.4 2.59,0 7.7,-1.97 15.17,-6.15 3.54,-1.97 6.53,-3.01 9.05,-3.01 7.07,0 14.14,6.72 21.38,20.06 5.82,10.66 10.61,22.25 14.3,35.01 3.69,12.64 5.5,23.65 5.5,32.93 0,9.04 -2.11,16.58 -6.44,22.61 -4.33,5.91 -9.67,8.93 -16.12,8.93 -5.35,0 -10.14,-1.86 -14.39,-5.69 -4.24,-3.94 -11,-12.4 -20.35,-25.5 -9.83,-14.04 -18.01,-21.1 -24.45,-21.1 -4.32,0 -8.02,2.32 -11.16,6.95 -3.14,4.64 -4.72,10.2 -4.72,16.47 0,11.13 7.24,21.56 21.62,31.3 25.94,17.15 45.82,35.94 59.66,56.34 11.71,17.27 17.53,38.25 17.53,63.19 0,31.53 -9.35,57.73 -28.13,78.83 -16.12,18.32 -35.85,27.47 -59.2,27.47 -5.97,0 -16.82,-1.5 -32.69,-4.41 -14.86,-2.43 -23.19,-3.7 -25.08,-3.7 -1.96,0 -4.32,0.34 -6.92,1.05 -4.4,0.81 -7.63,1.27 -9.67,1.27 -7.24,0 -12.89,-2.67 -17.06,-8.11 -6.29,-8.35 -12.1,-21.57 -17.45,-39.53 -5.42,-18.09 -8.1,-33.51 -8.1,-46.38 0,-20.87 5.51,-31.3 16.59,-31.3 4.32,0 8.26,2.09 11.88,6.27 3.61,4.28 11.15,15.41 22.71,33.5 6.29,9.97 11.47,16.81 15.64,20.51 4.17,3.71 8.57,5.69 13.37,5.69 5.03,0 9.11,-1.97 12.19,-6.03 3.05,-3.95 4.62,-9.16 4.62,-15.78 0,-10.19 -5.97,-19.47 -17.75,-27.81 -24.77,-17.86 -42.62,-36.41 -53.55,-55.43 -10.99,-19.01 -16.5,-40.92 -16.5,-65.84 0,-26.9 5.66,-50.21 16.82,-69.68 15.96,-27.83 37.82,-41.74 65.41,-41.74z"/>
  <path id="_17" class="fil2 str3" d="M2472.19 866.23c26.73,0 49.36,9.97 67.91,29.91 9.83,10.66 16.75,22.84 20.67,36.52 3.85,13.67 5.82,32.57 5.82,56.57l-0.47 50.55c0,35.14 1.73,57.85 5.1,68.29 1.67,4.98 3.31,8.11 4.88,9.51 1.49,1.39 4.72,2.55 9.67,3.7 4.88,1.16 7.31,5.91 7.31,14.26 0,10.9 -2.9,22.26 -8.88,33.97 -5.89,11.83 -13.52,21.68 -22.87,29.57 -11.56,9.97 -23.59,14.95 -36.16,14.95 -16.12,0 -28.85,-8.11 -38.21,-24.46 -3.22,-5.91 -6.21,-8.81 -9.04,-8.81 -3.06,0 -7.08,2.78 -12.19,8.46 -15.33,16.58 -32.77,24.8 -52.27,24.8 -20.13,0 -36.4,-6.37 -48.82,-19.01 -8.09,-8.35 -14.62,-19.36 -19.33,-32.81 -4.8,-13.45 -7.16,-27.48 -7.16,-42.2 0,-23.65 6.45,-44.4 19.34,-62.61 20.12,-28.52 50.23,-42.9 90.33,-43.12 8.88,0 14.45,-1.28 16.81,-3.83 2.28,-2.67 3.38,-8.7 3.38,-18.2 0,-24 -1.65,-41.39 -5.03,-52.17 -3.38,-10.67 -8.88,-16.12 -16.59,-16.12 -4.64,0 -8.72,2.08 -12.34,6.15 -3.62,4.06 -8.1,11.47 -13.45,22.37 -13.67,28.75 -27.99,43.13 -42.84,43.13 -7.55,0 -13.67,-3.24 -18.39,-9.85 -4.8,-6.5 -7.16,-15.19 -7.16,-25.74 0,-10.9 2.91,-21.79 8.89,-32.69 5.89,-10.78 13.91,-20.29 24.06,-28.52 27.74,-21.68 56.75,-32.57 87.02,-32.57zm-15.41 196.62c-6.76,0 -12.66,4.06 -17.61,12.28 -5.03,8.12 -7.46,17.86 -7.46,29.22 0,10.9 1.73,19.59 5.26,26.31 3.54,6.61 8.18,9.97 14.07,9.97 12.27,0 18.4,-15.29 18.4,-45.79 0,-12.52 -0.86,-20.87 -2.67,-25.16 -1.73,-4.29 -5.11,-6.61 -9.99,-6.84z"/>
 </g>
</svg>
